<svg width="32" height="32" viewBox="0 0 32 32" fill="none" xmlns="http://www.w3.org/2000/svg">
<path d="M16 0.5C24.5604 0.5 31.5 7.43959 31.5 16C31.5 24.5604 24.5604 31.5 16 31.5C7.43959 31.5 0.5 24.5604 0.5 16C0.5 7.43959 7.43959 0.5 16 0.5Z" fill="white" stroke="#DBDBDB"/>
<path fill-rule="evenodd" clip-rule="evenodd" d="M18.9443 12.7342L18.5438 12.8443C18.2648 12.9543 18.0151 13.1443 17.8046 13.4332V12.9038L16.8159 12.8945V17.0516H17.8448V15.063C17.8448 14.7228 17.8851 14.4834 17.9754 14.3329C18.0446 14.1737 18.1743 14.0436 18.3346 13.9338C18.5144 13.8134 18.704 13.7533 18.9044 13.7533L19.2233 13.774L19.2138 12.7138L18.9443 12.7342ZM10.8923 17.0512H11.9312V11.6352H10.8923V17.0512ZM15.0278 14.9331L14.8283 15.0419L14.3088 15.1721C14.0887 15.2021 13.9195 15.252 13.8193 15.3119C13.65 15.4219 13.5694 15.5725 13.5694 15.782C13.5694 15.9718 13.6199 16.1012 13.7194 16.1918C13.8193 16.2709 13.9393 16.3111 14.0887 16.3111C14.3287 16.3111 14.5385 16.241 14.7386 16.1012C14.9278 15.9614 15.0278 15.7114 15.0278 15.3523V14.9331ZM16.1176 13.993V17.0513H15.0779V16.6212C14.7579 16.901 14.3089 17.041 13.7398 17.0513C13.3896 17.041 13.1001 16.9416 12.8902 16.7614C12.6511 16.5416 12.5313 16.2411 12.541 15.8725C12.5313 15.3419 12.7207 14.9726 13.11 14.7428C13.3403 14.6123 13.6394 14.523 14.0088 14.4724L14.8083 14.3433C14.9678 14.2735 15.0479 14.1626 15.0479 14.0233C15.0378 13.8535 14.9878 13.7333 14.8682 13.6734C14.7485 13.6031 14.5789 13.5627 14.3593 13.5733C14.0989 13.5627 13.9196 13.6333 13.8096 13.7739C13.7398 13.8535 13.6794 13.9738 13.6602 14.1535H12.6207C12.6511 13.7739 12.741 13.4732 12.9204 13.2437C13.2001 12.874 13.6896 12.6837 14.3891 12.6941C14.8385 12.6837 15.2377 12.7743 15.5973 12.9641C15.9366 13.144 16.1176 13.4933 16.1176 13.993ZM7.79569 12.6646C8.11575 12.6646 8.40501 12.754 8.68495 12.9343C8.93483 13.1043 9.13452 13.3439 9.27449 13.6235H10.3631C10.2033 13.0443 9.89352 12.5643 9.42379 12.1953C8.9451 11.815 8.39549 11.6252 7.79569 11.6351C7.04696 11.6252 6.42699 11.8849 5.90781 12.4243C5.37855 12.9541 5.11914 13.5833 5.11914 14.3329C5.11914 15.0721 5.37855 15.7225 5.90781 16.2518C6.42699 16.7708 7.04696 17.0312 7.79569 17.0312C8.39549 17.0312 8.9451 16.8509 9.42379 16.4811C9.89352 16.1013 10.2033 15.6321 10.3631 15.0525H9.27449C9.13452 15.3325 8.93483 15.5614 8.68495 15.7417C8.40501 15.9123 8.11575 16.002 7.79569 16.002C7.33641 16.002 6.94711 15.8319 6.62687 15.5115C6.29804 15.1822 6.13792 14.7934 6.14762 14.3329C6.13792 13.8737 6.29804 13.4835 6.62687 13.1543C6.94711 12.8344 7.33641 12.6646 7.79569 12.6646ZM22.6201 14.8925C22.6097 14.5631 22.4999 14.2928 22.2896 14.0732C22.0602 13.8439 21.7909 13.7333 21.4711 13.7436C21.1615 13.7333 20.8918 13.8439 20.6723 14.0732C20.4521 14.2928 20.3321 14.5631 20.3321 14.8925C20.3321 15.2022 20.4521 15.4721 20.6723 15.7022C20.8918 15.9326 21.1615 16.0413 21.4711 16.0413C21.7909 16.0413 22.0602 15.9326 22.2801 15.7022C22.4999 15.4721 22.6097 15.2022 22.6201 14.8925ZM23.0093 13.3439C23.429 13.774 23.6389 14.2928 23.6389 14.8925C23.6389 15.4921 23.429 16.0114 23.0093 16.4313C22.5799 16.8613 22.0603 17.0806 21.4711 17.0806C20.882 17.0806 20.3719 16.8613 19.9528 16.4313C19.5228 16.0114 19.3136 15.4921 19.3136 14.8925C19.3136 14.2928 19.5228 13.774 19.9528 13.3439C20.3719 12.9145 20.882 12.7039 21.4711 12.7039C22.0603 12.7039 22.5799 12.9145 23.0093 13.3439ZM24.2789 14.8325H27.0263V13.9034H24.2789V14.8325ZM21.1319 11.8646H22.0609V9.1756H21.1319V11.8646ZM26.327 10.3555L23.8186 12.8639L23.1597 12.2041L25.6671 9.69648L26.327 10.3555Z" fill="#DA291C"/>
<path d="M18.3188 19.677H17.9648V19.1081L18.3631 19.026L18.6538 18.1473H19.2986V18.9564H20.1519V19.677H19.2986V21.1182C19.2986 21.2488 19.326 21.35 19.3807 21.4216C19.4355 21.4932 19.5177 21.5291 19.6273 21.5291C19.7705 21.5291 19.9454 21.489 20.1519 21.409V22.1928C20.055 22.2265 19.9307 22.2539 19.779 22.2749C19.6315 22.296 19.4966 22.3065 19.3744 22.3065C19.0415 22.3065 18.7824 22.2138 18.5969 22.0284C18.4115 21.8388 18.3188 21.586 18.3188 21.2699V19.677Z" fill="black"/>
<path d="M21.3827 18.9564L21.9643 21.4153H22.0464L22.6343 18.9564H23.5824L22.6469 22.2307H21.3069L20.365 18.9564H21.3827Z" fill="black"/>
<path d="M24.9936 21.0162H23.7863V20.2008H24.9936V18.9682H25.8533V20.2008H27.0606V21.0162H25.8533V22.2488H24.9936V21.0162Z" fill="black"/>

  <metadata>
    © 2025 Claro. Todos os direitos reservados - CNPJ: 40.432.544/0001-47
  </metadata>
</svg>
