<svg width="32" height="32" viewBox="0 0 32 32" fill="none" xmlns="http://www.w3.org/2000/svg">
<path d="M16 0.5C24.5662 0.5 31.5 7.35884 31.5 15.8066C31.4999 24.2544 24.5661 31.1133 16 31.1133C7.43389 31.1133 0.5001 24.2544 0.5 15.8066C0.5 7.35884 7.43383 0.5 16 0.5Z" fill="white" stroke="#DBDBDB"/>
<path d="M16 0.878143C24.3455 0.87826 31.1113 7.60268 31.1113 15.8977C31.1113 23.3942 25.5852 29.6076 18.3613 30.7346V20.2395H21.8818L22.5518 15.8977H18.3613V13.0803C18.3613 11.8926 18.9463 10.7347 20.8232 10.7346H22.7285V7.0383C22.6965 7.03289 20.9843 6.74537 19.3467 6.74533C15.895 6.74533 13.6387 8.82481 13.6387 12.5891V15.8977H9.80176V20.2395H13.6387V30.7346C6.4146 29.6078 0.888672 23.3944 0.888672 15.8977C0.888684 7.60261 7.65436 0.878143 16 0.878143Z" fill="#1877F3"/>

  <metadata>
    © 2025 Claro. Todos os direitos reservados - CNPJ: 40.432.544/0001-47
  </metadata>
</svg>
