<svg width="32" height="32" viewBox="0 0 32 32" fill="none" xmlns="http://www.w3.org/2000/svg">
<circle cx="16" cy="16" r="15.5" fill="#F50234" stroke="#DBDBDB"/>
<path d="M25.7206 17.3919C25.5871 17.3919 25.509 17.4444 25.4715 17.56L24.6375 19.9841L23.6789 17.56C23.6339 17.4444 23.5634 17.3919 23.4374 17.3919H22.6318C22.4728 17.3919 22.4098 17.4894 22.4833 17.638L24.1319 21.3717L23.9984 21.6568C23.7944 22.1008 23.5889 22.2703 23.3864 22.2703C23.2709 22.2703 23.1449 22.2358 23.0309 22.1833C22.9063 22.1203 22.7983 22.1398 22.7368 22.2613L22.5058 22.7054C22.4533 22.8119 22.4623 22.9184 22.5688 22.9994C22.7818 23.1674 23.0414 23.2934 23.3939 23.2934C24.1844 23.2934 24.6435 22.7084 25.071 21.6223L26.6416 17.6425C26.7046 17.4924 26.6506 17.3964 26.4916 17.3964H25.7206L25.7236 17.3934H25.7221L25.7206 17.3919ZM6.39007 13.1661C6.39007 12.5091 6.8611 12.074 7.42065 12.074C7.98019 12.074 8.44223 12.5091 8.44223 13.1661C8.44223 13.8232 7.98019 14.2582 7.42065 14.2582C6.8611 14.2582 6.39007 13.8142 6.39007 13.1661ZM5.33398 13.1751C5.33398 14.3842 6.21155 15.2183 7.32014 15.2183C7.81668 15.2183 8.19771 14.9873 8.41972 14.7457C8.41072 15.5903 7.96669 15.9728 7.20463 15.9728C6.7951 15.9728 6.41407 15.8483 5.97153 15.5633C5.85602 15.4823 5.72551 15.5108 5.66251 15.6353L5.39699 16.1618C5.33398 16.2849 5.35349 16.4019 5.478 16.4799C6.02704 16.8369 6.67359 17.0124 7.23313 17.0124C8.69725 17.0124 9.50281 16.2203 9.50281 14.3992V11.324C9.50281 11.189 9.4218 11.111 9.28979 11.111H8.68674C8.55173 11.111 8.47373 11.192 8.47373 11.324V11.555C8.23371 11.261 7.78967 11.0389 7.34714 11.0389C6.26706 11.0389 5.33398 11.9615 5.33398 13.1721M12.7056 13.1721C12.7056 12.5406 13.1676 12.08 13.7361 12.08C14.3047 12.08 14.7637 12.5436 14.7637 13.1721C14.7637 13.8007 14.3017 14.2642 13.7361 14.2642C13.1706 14.2642 12.7056 13.8007 12.7056 13.1721ZM11.6315 13.1721C11.6315 14.4082 12.572 15.3068 13.7331 15.3068C14.8942 15.3068 15.8348 14.4082 15.8348 13.1721C15.8348 11.936 14.8942 11.0374 13.7331 11.0374C12.572 11.0374 11.6315 11.9345 11.6315 13.1721ZM22.0108 13.1721C22.0108 12.5406 22.4728 12.08 23.0414 12.08C23.6099 12.08 24.0719 12.5436 24.0719 13.1721C24.0719 13.8007 23.6099 14.2642 23.0414 14.2642C22.4728 14.2642 22.0108 13.8007 22.0108 13.1721ZM20.9367 13.1721C20.9367 14.4082 21.8773 15.3068 23.0384 15.3068C24.1994 15.3068 25.14 14.4082 25.14 13.1721C25.14 11.936 24.1994 11.0374 23.0384 11.0374C21.8773 11.0374 20.9367 11.9345 20.9367 13.1721ZM12.7446 19.4501C12.7446 18.802 13.2081 18.358 13.7571 18.358C14.3062 18.358 14.7682 18.802 14.7682 19.4501C14.7682 20.0982 14.3062 20.5422 13.7571 20.5422C13.2081 20.5422 12.7446 20.1072 12.7446 19.4501ZM12.7011 17.842V17.602C12.7011 17.4669 12.62 17.3889 12.488 17.3889H11.8955C11.762 17.3889 11.6825 17.4699 11.6825 17.602V23.0054C11.6825 23.1404 11.7635 23.2184 11.8955 23.2184H12.551C12.6861 23.2184 12.7641 23.1374 12.7641 23.0054V21.1122C13.0206 21.3777 13.4391 21.5818 13.8726 21.5818C14.9542 21.5818 15.8408 20.6592 15.8408 19.4471C15.8408 18.235 14.9347 17.3124 13.8801 17.3124C13.3836 17.3124 12.9651 17.5254 12.6996 17.839M18.9985 19.4471C18.9985 18.79 19.4621 18.355 20.0111 18.355C20.5602 18.355 21.0222 18.79 21.0222 19.4471C21.0222 20.1041 20.5602 20.5392 20.0111 20.5392C19.4621 20.5392 18.9985 20.0951 18.9985 19.4471ZM17.9245 19.4471C17.9245 20.6547 18.8305 21.5818 19.8851 21.5818C20.3817 21.5818 20.8002 21.3687 21.0657 21.0552V21.2952C21.0657 21.4303 21.1467 21.5083 21.2772 21.5083H21.8713C22.0048 21.5083 22.0828 21.4273 22.0828 21.2952V17.596C22.0828 17.4609 22.0018 17.3829 21.8713 17.3829H21.2772C21.1437 17.3829 21.0657 17.4639 21.0657 17.596V17.8525C20.8152 17.5495 20.3666 17.3109 19.8941 17.3109C18.8095 17.3109 17.9245 18.2335 17.9245 19.4456V19.4471ZM17.3949 13.1691C17.3949 12.5211 17.857 12.077 18.406 12.077C18.955 12.077 19.4171 12.5211 19.4171 13.1691C19.4171 13.8172 18.955 14.2612 18.406 14.2612C17.857 14.2612 17.3949 13.8262 17.3949 13.1691ZM16.5414 9.41132C16.4063 9.41132 16.3283 9.49233 16.3283 9.62434V15.0188C16.3283 15.1538 16.4093 15.2318 16.5414 15.2318H17.1354C17.2704 15.2318 17.3484 15.1508 17.3484 15.0188V14.7877C17.6049 15.0818 18.085 15.3053 18.5545 15.3053C19.5911 15.3053 20.4882 14.3632 20.4882 13.1706C20.4882 11.978 19.5821 11.0359 18.5275 11.0359C18.103 11.0359 17.6844 11.2235 17.4099 11.5085V9.62434C17.4099 9.48933 17.3289 9.41132 17.1969 9.41132H16.5414H16.5444H16.5429H16.5414ZM16.5504 15.6893C16.4168 15.6893 16.3373 15.7703 16.3373 15.9023V21.2967C16.3373 21.4318 16.4183 21.5098 16.5504 21.5098H17.2164C17.3499 21.5098 17.4279 21.4288 17.4279 21.2967V15.9083C17.4279 15.7733 17.3469 15.6953 17.2164 15.6953H16.5504V15.6893ZM10.0473 9.66184V14.9843C10.0473 15.2693 10.2259 15.3848 10.4809 15.2693L10.8184 15.1193C11.0314 15.0218 11.1274 14.8792 11.1274 14.6467V9.99936C11.1274 9.76835 11.0299 9.62734 10.8184 9.52683L10.4809 9.37682C10.4149 9.34531 10.3534 9.33331 10.2994 9.33331C10.1434 9.33331 10.0458 9.45182 10.0458 9.66184H10.0473Z" fill="#E7E7E7"/>

  <metadata>
    © 2025 Claro. Todos os direitos reservados - CNPJ: 40.432.544/0001-47
  </metadata>
</svg>
