<svg width="32" height="32" viewBox="0 0 32 32" fill="none" xmlns="http://www.w3.org/2000/svg">
<circle cx="16" cy="16" r="15.5" fill="black" stroke="#DBDBDB"/>
<path fill-rule="evenodd" clip-rule="evenodd" d="M12.0363 8.20254C11.9982 8.18663 11.6327 8.03278 11.5803 8.01061C11.5788 8.01001 11.5757 8.00869 11.572 8.00713C11.566 8.00464 11.5684 8.00571 11.5654 8.00448C11.5591 8.00185 11.557 8.00094 11.5548 8C11.5548 8.11934 11.5547 8.29605 11.5547 8.48503C11.5547 8.72672 11.5547 8.98334 11.5547 9.11086C11.5547 9.35675 11.5547 9.98949 11.5547 10.2233C11.5547 10.6746 11.5547 14.153 11.5547 14.3962C11.5547 14.633 11.5547 23.7362 11.5547 23.987C12.7556 23.8371 13.3562 23.7788 14.5779 23.721C14.5779 23.4777 14.5779 21.064 14.5779 20.712C14.5779 18.6798 14.5779 17.2497 14.5779 16.4614C14.5779 16.1296 14.5779 16.0067 14.5779 15.6663C14.4854 15.3947 14.094 14.2418 13.9937 13.9515C13.8066 13.3978 12.7411 10.2725 12.656 10.0224C12.5796 9.7981 12.3669 9.17449 12.2993 8.97492C12.2598 8.85947 12.1566 8.5573 12.1018 8.39614C12.059 8.27013 12.0628 8.28048 12.0363 8.20254Z" fill="url(#paint0_linear_866_2231)"/>
<path fill-rule="evenodd" clip-rule="evenodd" d="M19.5417 23.7844C19.5797 23.8002 19.9452 23.9542 19.9977 23.9764C19.9991 23.9769 20.0022 23.9782 20.0059 23.9798C20.012 23.9823 20.0096 23.9812 20.0125 23.9825C20.0188 23.9851 20.0209 23.986 20.0231 23.9869C20.0232 23.8676 20.0232 23.6909 20.0232 23.5019C20.0233 23.2601 20.0232 23.0036 20.0232 22.8761C20.0232 22.6303 20.0232 21.9974 20.0232 21.7636C20.0232 21.3124 20.0232 17.834 20.0232 17.5907C20.0232 17.3539 20.0232 8.25086 20.0232 8C19.7857 8 17.383 8 17 8C17 8.2435 17 10.923 17 11.275C17 13.3071 17 14.7373 17 15.5256C17 15.8574 17 15.9803 17 16.3206C17.0925 16.5922 17.484 17.7451 17.5842 18.0354C17.7714 18.5892 18.8368 21.7145 18.922 21.9645C18.9983 22.1889 19.211 22.8125 19.2786 23.012C19.3181 23.1275 19.4213 23.4297 19.4761 23.5908C19.519 23.7169 19.5151 23.7065 19.5417 23.7844Z" fill="url(#paint1_linear_866_2231)"/>
<path fill-rule="evenodd" clip-rule="evenodd" d="M14.5779 8H11.5547L16.9081 23.7211C18.4125 23.7606 20.0218 23.9871 20.0218 23.9871L14.5779 8Z" fill="#E50A15"/>
<defs>
<linearGradient id="paint0_linear_866_2231" x1="14.021" y1="12.8955" x2="13.2629" y2="12.9033" gradientUnits="userSpaceOnUse">
<stop stop-color="#80020E"/>
<stop offset="1" stop-color="#B10610"/>
</linearGradient>
<linearGradient id="paint1_linear_866_2231" x1="18.1965" y1="12.407" x2="16.9648" y2="12.4191" gradientUnits="userSpaceOnUse">
<stop stop-color="#B10610"/>
<stop offset="1" stop-color="#80020E"/>
</linearGradient>
</defs>

  <metadata>
    © 2025 Claro. Todos os direitos reservados - CNPJ: 40.432.544/0001-47
  </metadata>
</svg>
