<svg width="32" height="32" viewBox="0 0 32 32" fill="none" xmlns="http://www.w3.org/2000/svg">
<circle cx="16" cy="16" r="15.5" fill="black" stroke="#DBDBDB"/>
<path d="M13.7158 13.9081V13.058C13.4244 13.0182 13.1282 12.9932 12.8258 12.9932C9.18475 12.9932 6.22266 15.9553 6.22266 19.5963C6.22266 21.8302 7.33921 23.807 9.04177 25.0025C7.94241 23.8227 7.2681 22.242 7.2681 20.5066C7.2681 16.9179 10.1466 13.9909 13.7158 13.9073V13.9081Z" fill="#25F4EE"/>
<path d="M13.8718 23.5233C15.4962 23.5233 16.8214 22.231 16.8816 20.6214L16.887 6.24377H19.5139C19.4592 5.94842 19.4295 5.64447 19.4295 5.3335H15.8416L15.8361 19.7111C15.7759 21.3215 14.4508 22.613 12.8264 22.613C12.3216 22.613 11.8458 22.4865 11.4277 22.2669C11.9762 23.0264 12.8662 23.5241 13.8726 23.5241L13.8718 23.5233Z" fill="#25F4EE"/>
<path d="M24.4195 11.1234V10.324C23.4178 10.324 22.4841 10.0263 21.7012 9.51611C22.3981 10.3162 23.3451 10.8936 24.4195 11.1234Z" fill="#25F4EE"/>
<path d="M21.7022 9.51497C20.9389 8.63829 20.4747 7.49362 20.4747 6.24268H19.5137C19.7668 7.60926 20.5779 8.78206 21.7022 9.51497Z" fill="#FE2C55"/>
<path d="M12.8266 16.581C11.1638 16.581 9.81055 17.9335 9.81055 19.597C9.81055 20.755 10.4677 21.7614 11.4272 22.2661C11.0693 21.7707 10.856 21.1636 10.856 20.5073C10.856 18.8446 12.2093 17.4913 13.872 17.4913C14.1822 17.4913 14.4799 17.5428 14.762 17.6304V13.9682C14.4705 13.9283 14.1744 13.9033 13.872 13.9033C13.8197 13.9033 13.7681 13.9064 13.7157 13.9072V16.7201C13.4344 16.6318 13.136 16.581 12.8258 16.581H12.8266Z" fill="#FE2C55"/>
<path d="M24.4195 11.1235V13.9122C22.5591 13.9122 20.8355 13.3168 19.4283 12.3073V19.5981C19.4283 23.2391 16.4662 26.2012 12.8251 26.2012C11.4179 26.2012 10.113 25.7574 9.04102 25.0042C10.2474 26.2989 11.9656 27.1115 13.8713 27.1115C17.5124 27.1115 20.4745 24.1494 20.4745 20.5083V13.2176C21.8817 14.2278 23.6054 14.8224 25.4658 14.8224V11.2345C25.1071 11.2345 24.7571 11.1954 24.4203 11.1235H24.4195Z" fill="#FE2C55"/>
<path d="M19.4285 19.5967V12.306C20.8357 13.3162 22.5594 13.9108 24.4198 13.9108V11.1222C23.3454 10.8925 22.3984 10.3151 21.7014 9.51497C20.5771 8.78206 19.766 7.60926 19.5129 6.24268H16.886L16.8805 20.6203C16.8204 22.2307 15.4952 23.5222 13.8708 23.5222C12.8644 23.5222 11.9744 23.0253 11.4259 22.265C10.4656 21.7595 9.80931 20.7539 9.80931 19.5959C9.80931 17.9332 11.1626 16.5799 12.8253 16.5799C13.1355 16.5799 13.4332 16.6315 13.7153 16.719V13.9062C10.1461 13.9898 7.26758 16.9167 7.26758 20.5054C7.26758 22.2416 7.94188 23.8215 9.04124 25.0013C10.114 25.7545 11.4181 26.1983 12.8253 26.1983C16.4664 26.1983 19.4285 23.2363 19.4285 19.5952V19.5967Z" fill="white"/>

  <metadata>
    © 2025 Claro. Todos os direitos reservados - CNPJ: 40.432.544/0001-47
  </metadata>
</svg>
