<svg width="32" height="32" viewBox="0 0 32 32" fill="none" xmlns="http://www.w3.org/2000/svg">
<path d="M16 0.5C24.5632 0.5 31.4998 7.39912 31.5 15.9033C31.5 24.4077 24.5633 31.3076 16 31.3076C7.43673 31.3076 0.5 24.4077 0.5 15.9033C0.50016 7.39912 7.43683 0.5 16 0.5Z" fill="#E20D16" stroke="#DBDBDB"/>
<path fill-rule="evenodd" clip-rule="evenodd" d="M24.6538 11.7146C24.4425 10.9291 23.8201 10.3102 23.0296 10.1003C21.5969 9.71875 15.8518 9.71875 15.8518 9.71875C15.8518 9.71875 10.1069 9.71875 8.67415 10.1003C7.88369 10.3102 7.26124 10.9291 7.04998 11.7146C6.66602 13.1389 6.66602 16.11 6.66602 16.11C6.66602 16.11 6.66602 19.0813 7.04998 20.5054C7.26124 21.2909 7.88369 21.9099 8.67415 22.1198C10.1069 22.5014 15.8518 22.5014 15.8518 22.5014C15.8518 22.5014 21.5969 22.5014 23.0296 22.1198C23.8201 21.9099 24.4425 21.2909 24.6538 20.5054C25.0377 19.0813 25.0377 16.11 25.0377 16.11C25.0377 16.11 25.0377 13.1389 24.6538 11.7146Z" fill="white"/>
<path fill-rule="evenodd" clip-rule="evenodd" d="M13.7773 18.7313L18.5502 15.9923L13.7773 13.2529V18.7313Z" fill="#E20A12"/>

  <metadata>
    © 2025 Claro. Todos os direitos reservados - CNPJ: 40.432.544/0001-47
  </metadata>
</svg>
